<mxfile host="app.diagrams.net" agent="Mozilla/5.0 (Windows NT 10.0; Win64; x64; rv:133.0) Gecko/20100101 Firefox/133.0" version="25.0.1">
  <diagram name="Page-1" id="y6cOeRmJeKwieuvbdpE5">
    <mxGraphModel dx="794" dy="414" grid="1" gridSize="10" guides="1" tooltips="1" connect="1" arrows="1" fold="1" page="1" pageScale="1" pageWidth="850" pageHeight="1100" math="0" shadow="0">
      <root>
        <mxCell id="0" />
        <mxCell id="1" parent="0" />
        <mxCell id="8eNlqZFdrqpLB3Y1PT_I-2" value="HRD&lt;span style=&quot;white-space: pre;&quot;&gt;&#x9;&lt;/span&gt;&lt;span style=&quot;white-space: pre;&quot;&gt;&#x9;&lt;/span&gt;&lt;span style=&quot;white-space: pre;&quot;&gt;&#x9;&lt;/span&gt;Manajer&lt;span style=&quot;white-space: pre;&quot;&gt;&#x9;&lt;/span&gt;&lt;span style=&quot;white-space: pre;&quot;&gt;&#x9;&lt;/span&gt;&lt;span style=&quot;white-space: pre;&quot;&gt;&#x9;&lt;/span&gt;Karyawan" style="swimlane;whiteSpace=wrap;html=1;startSize=23;" vertex="1" parent="1">
          <mxGeometry x="170" y="30" width="400" height="340" as="geometry">
            <mxRectangle x="170" y="30" width="140" height="30" as="alternateBounds" />
          </mxGeometry>
        </mxCell>
        <mxCell id="8eNlqZFdrqpLB3Y1PT_I-3" value="Data karyawan" style="shape=document;whiteSpace=wrap;html=1;boundedLbl=1;" vertex="1" parent="8eNlqZFdrqpLB3Y1PT_I-2">
          <mxGeometry x="160" y="60" width="80" height="40" as="geometry" />
        </mxCell>
        <mxCell id="8eNlqZFdrqpLB3Y1PT_I-10" style="edgeStyle=orthogonalEdgeStyle;rounded=0;orthogonalLoop=1;jettySize=auto;html=1;exitX=1;exitY=0.5;exitDx=0;exitDy=0;entryX=0;entryY=0.5;entryDx=0;entryDy=0;" edge="1" parent="8eNlqZFdrqpLB3Y1PT_I-2" source="8eNlqZFdrqpLB3Y1PT_I-4" target="8eNlqZFdrqpLB3Y1PT_I-3">
          <mxGeometry relative="1" as="geometry" />
        </mxCell>
        <mxCell id="8eNlqZFdrqpLB3Y1PT_I-4" value="Data karyawan" style="shape=document;whiteSpace=wrap;html=1;boundedLbl=1;" vertex="1" parent="8eNlqZFdrqpLB3Y1PT_I-2">
          <mxGeometry x="40" y="60" width="80" height="40" as="geometry" />
        </mxCell>
        <mxCell id="8eNlqZFdrqpLB3Y1PT_I-5" value="Menyeleksi karyawan" style="rounded=0;whiteSpace=wrap;html=1;" vertex="1" parent="8eNlqZFdrqpLB3Y1PT_I-2">
          <mxGeometry x="155" y="120" width="90" height="40" as="geometry" />
        </mxCell>
        <mxCell id="8eNlqZFdrqpLB3Y1PT_I-11" style="edgeStyle=orthogonalEdgeStyle;rounded=0;orthogonalLoop=1;jettySize=auto;html=1;exitX=0;exitY=0.5;exitDx=0;exitDy=0;" edge="1" parent="8eNlqZFdrqpLB3Y1PT_I-2" source="8eNlqZFdrqpLB3Y1PT_I-6" target="8eNlqZFdrqpLB3Y1PT_I-7">
          <mxGeometry relative="1" as="geometry" />
        </mxCell>
        <mxCell id="8eNlqZFdrqpLB3Y1PT_I-6" value="&lt;font style=&quot;font-size: 9px;&quot;&gt;Data karyawan terpilih&lt;br&gt;&lt;/font&gt;" style="shape=document;whiteSpace=wrap;html=1;boundedLbl=1;" vertex="1" parent="8eNlqZFdrqpLB3Y1PT_I-2">
          <mxGeometry x="160" y="190" width="80" height="40" as="geometry" />
        </mxCell>
        <mxCell id="8eNlqZFdrqpLB3Y1PT_I-12" style="edgeStyle=orthogonalEdgeStyle;rounded=0;orthogonalLoop=1;jettySize=auto;html=1;exitX=0.5;exitY=1;exitDx=0;exitDy=0;" edge="1" parent="8eNlqZFdrqpLB3Y1PT_I-2" source="8eNlqZFdrqpLB3Y1PT_I-7" target="8eNlqZFdrqpLB3Y1PT_I-8">
          <mxGeometry relative="1" as="geometry" />
        </mxCell>
        <mxCell id="8eNlqZFdrqpLB3Y1PT_I-7" value="Membuat jadwal shift kerja" style="rounded=0;whiteSpace=wrap;html=1;" vertex="1" parent="8eNlqZFdrqpLB3Y1PT_I-2">
          <mxGeometry x="35" y="190" width="90" height="40" as="geometry" />
        </mxCell>
        <mxCell id="8eNlqZFdrqpLB3Y1PT_I-13" style="edgeStyle=orthogonalEdgeStyle;rounded=0;orthogonalLoop=1;jettySize=auto;html=1;exitX=1;exitY=0.5;exitDx=0;exitDy=0;entryX=0;entryY=0.5;entryDx=0;entryDy=0;" edge="1" parent="8eNlqZFdrqpLB3Y1PT_I-2" source="8eNlqZFdrqpLB3Y1PT_I-8" target="8eNlqZFdrqpLB3Y1PT_I-9">
          <mxGeometry relative="1" as="geometry">
            <Array as="points">
              <mxPoint x="270" y="280" />
              <mxPoint x="270" y="80" />
            </Array>
          </mxGeometry>
        </mxCell>
        <mxCell id="8eNlqZFdrqpLB3Y1PT_I-8" value="Data jadwal shift kerja" style="shape=document;whiteSpace=wrap;html=1;boundedLbl=1;" vertex="1" parent="8eNlqZFdrqpLB3Y1PT_I-2">
          <mxGeometry x="40" y="260" width="80" height="40" as="geometry" />
        </mxCell>
        <mxCell id="8eNlqZFdrqpLB3Y1PT_I-9" value="Data jadwal shift kerja" style="shape=document;whiteSpace=wrap;html=1;boundedLbl=1;" vertex="1" parent="8eNlqZFdrqpLB3Y1PT_I-2">
          <mxGeometry x="300" y="60" width="80" height="40" as="geometry" />
        </mxCell>
        <mxCell id="8eNlqZFdrqpLB3Y1PT_I-15" style="edgeStyle=orthogonalEdgeStyle;rounded=0;orthogonalLoop=1;jettySize=auto;html=1;exitX=0.498;exitY=0.882;exitDx=0;exitDy=0;entryX=0.5;entryY=0;entryDx=0;entryDy=0;exitPerimeter=0;" edge="1" parent="8eNlqZFdrqpLB3Y1PT_I-2" source="8eNlqZFdrqpLB3Y1PT_I-3" target="8eNlqZFdrqpLB3Y1PT_I-5">
          <mxGeometry relative="1" as="geometry" />
        </mxCell>
        <mxCell id="8eNlqZFdrqpLB3Y1PT_I-16" style="edgeStyle=orthogonalEdgeStyle;rounded=0;orthogonalLoop=1;jettySize=auto;html=1;exitX=0.5;exitY=1;exitDx=0;exitDy=0;entryX=0.505;entryY=0.056;entryDx=0;entryDy=0;entryPerimeter=0;" edge="1" parent="8eNlqZFdrqpLB3Y1PT_I-2" source="8eNlqZFdrqpLB3Y1PT_I-5" target="8eNlqZFdrqpLB3Y1PT_I-6">
          <mxGeometry relative="1" as="geometry" />
        </mxCell>
        <mxCell id="8eNlqZFdrqpLB3Y1PT_I-19" value="" style="endArrow=none;html=1;rounded=0;entryX=0.358;entryY=0.012;entryDx=0;entryDy=0;entryPerimeter=0;" edge="1" parent="8eNlqZFdrqpLB3Y1PT_I-2" target="8eNlqZFdrqpLB3Y1PT_I-2">
          <mxGeometry width="50" height="50" relative="1" as="geometry">
            <mxPoint x="143" y="340" as="sourcePoint" />
            <mxPoint x="160" y="10" as="targetPoint" />
          </mxGeometry>
        </mxCell>
        <mxCell id="8eNlqZFdrqpLB3Y1PT_I-20" value="" style="endArrow=none;html=1;rounded=0;entryX=0.358;entryY=0.012;entryDx=0;entryDy=0;entryPerimeter=0;" edge="1" parent="1">
          <mxGeometry width="50" height="50" relative="1" as="geometry">
            <mxPoint x="430" y="366" as="sourcePoint" />
            <mxPoint x="430" y="30" as="targetPoint" />
          </mxGeometry>
        </mxCell>
      </root>
    </mxGraphModel>
  </diagram>
</mxfile>
